<svg width="24" height="24" viewBox="0 0 24 24" fill="none" xmlns="http://www.w3.org/2000/svg">
<path d="M9.00002 4H4.00004L4 9.00002M20 9.00002V4.00004L15 4M15 20.0001H20L20 15M4 15L4 20L9.00002 20.0001" stroke="currentColor" stroke-width="1.5" stroke-linecap="round" stroke-linejoin="round"/>
<rect x="6.75" y="6.75" width="2.5" height="2.5" stroke="currentColor"/>
<rect x="6.75" y="14.75" width="2.5" height="2.5" stroke="currentColor"/>
<rect x="14.75" y="6.75" width="2.5" height="2.5" stroke="currentColor"/>
<line y1="-0.5" x2="3.5" y2="-0.5" transform="matrix(0 -1 -1 0 12.75 9.75)" stroke="currentColor"/>
<line y1="-0.5" x2="3.5" y2="-0.5" transform="matrix(1 0 0 -1 10.25 8.75)" stroke="currentColor"/>
<line y1="-0.5" x2="3.5" y2="-0.5" transform="matrix(0 -1 -1 0 12.75 9.75)" stroke="currentColor"/>
<line y1="-0.5" x2="3.5" y2="-0.5" transform="matrix(1 0 0 -1 10.25 8.75)" stroke="currentColor"/>
<rect x="10.25" y="6.25" width="1.2" height="1.2" fill="currentColor"/>
<line x1="14.75" y1="13.75" x2="14.75" y2="10.25" stroke="currentColor"/>
<line x1="17.75" y1="13.25" x2="14.25" y2="13.25" stroke="currentColor"/>
<rect x="16.5" y="10.25" width="1.2" height="1.2" fill="currentColor"/>
<line x1="8.25" y1="10.75" x2="9.75" y2="10.75" stroke="currentColor"/>
<line x1="8.25" y1="10.25" x2="8.25" y2="13.75" stroke="currentColor"/>
<line x1="6.25" y1="13.25" x2="7.75" y2="13.25" stroke="currentColor"/>
<line x1="10.25" y1="10.75" x2="13.75" y2="10.75" stroke="currentColor"/>
<line x1="10.25" y1="17.25" x2="12.25" y2="17.25" stroke="currentColor"/>
<line x1="9.25" y1="13.25" x2="11.25" y2="13.25" stroke="currentColor"/>
<line x1="10.75" y1="13.25" x2="10.75" y2="15.75" stroke="currentColor"/>
<line x1="15.75" y1="15.25" x2="17.75" y2="15.25" stroke="currentColor"/>
<line x1="15.75" y1="17.25" x2="17.75" y2="17.25" stroke="currentColor"/>
<line x1="17.25" y1="15.25" x2="17.25" y2="17.75" stroke="currentColor"/>
<line x1="12.25" y1="15.25" x2="14.25" y2="15.25" stroke="currentColor"/>
<line x1="13.75" y1="15.25" x2="13.75" y2="17.75" stroke="currentColor"/>
</svg>
